<svg xmlns="http://www.w3.org/2000/svg" style="isolation:isolate" viewBox="0 0 300 200" width="400" height="200pt"><defs><clipPath id="a"><path d="M0 0h300v200H0z"/></clipPath></defs><g clip-path="url(#a)"><path d="M8.056 165.322q-.586 0-1.816-.176-.938-.996-1.67-2.725-.733-1.728-1.114-3.691-.38-1.963-.351-3.926.029-1.963.674-3.486 0-.059.556-1.407.557-1.347 1.436-3.427.879-2.08 1.992-4.629 1.113-2.549 2.227-5.01 1.113-2.461 2.138-4.482 1.026-2.022 1.787-3.135.528-.82.967-1.582.44-.762.85-1.406.644-1.055 1.201-1.963.557-.909 1.23-1.641.674-.732 1.495-1.289.82-.557 1.992-.967.703.293 1.23.615.528.323.938.791l.175.821q.118.41.381.556.264.147.44.147.762.176 1.318.381.557.205 1.201.263.235.352.44.704.205.351.439.644 1.172 1.699 1.934 3.281t0 3.457l.058.645q.293.41.293.762 0 .351-.117.996-.058.468-.088 1.025-.029.557.147 1.201l.41.469q.937.469 1.816.469 1.172 0 2.11-.528.937-.527 1.758-1.054.644-.469 1.201-.762.556-.293 1.084-.41 1.23-1.172 2.256-2.08 1.025-.908 2.138-1.846 2.11-1.699 4.102-3.662 1.992-1.963 3.164-4.893.644-.41 1.465-.41.82 0 1.64.323.821.322 1.641.732.176.117.322.176.147.058.322.175 0 .645.528 1.172.293.235.41.293l.234.118q.469.292.791.527.323.234.498.644.528 1.582 1.758 2.461-.117.645.059 1.26t.41 1.201q.117.235.176.44.058.205.176.498l-1.29-.117.176 1.289q.176.996-.146 2.226-.322 1.231-.733 1.934.118 1.758.118 2.783t-.118 1.904q-.117.879-.38 1.67-.264.791-.674 1.67.234 4.453-1.026 8.145-1.259 3.691-2.724 6.914-.176.41-.352.761-.176.352-.293.704-.644.175-1.172.41-.527.234-.996.527-.644.41-1.289.674-.644.264-1.348.264-2.812-2.051-2.9-7.09-.088-5.039 2.139-12.832.41-.293.351-.879v-.645l-.586-.058q-.293 0-.527.058-.234.059-.352.528-1.875 1.347-4.072 2.783-2.197 1.435-4.541 2.637-2.344 1.201-4.775 1.992-2.432.791-4.717.791-5.859 0-8.848-5.977l-.527-1.055-.586.938q-.176.293-.615 1.143-.44.849-.879 1.962-.44 1.114-.762 2.286-.322 1.171-.205 2.05-.703.645-1.377 1.465-.674.821-.967 1.875-.117.293-.058.557.058.264.176.557-.059.41-.235.585-.176.176-.41.352-.293.293-.586.615-.293.323-.527.733-.117.351-.176.732-.059.381-.117.674 0 .644-.176.879-.586 1.23-1.025 2.021-.44.791-.85 1.201-.41.411-.85.557-.439.147-1.025.147Z" class="letra7" fill="#009688"/><path d="m65.302 135.79.117-.293q-.117-.761-.293-.937.41-1.055.616-2.08.205-1.026.322-1.963.117-.82.263-1.524.147-.703.381-1.347.996-.235 1.494-.85.499-.615.791-1.084 1.055-.058 1.377.293.323.352.733 1.172.293.645.82 1.377.528.732 1.582 1.143.176.644.41 1.23.235.586.528 1.231.527 1.23.996 2.548.469 1.319.527 2.491-.703 1.347-1.084 3.105-.381 1.758-.469 3.545-.087 1.787.088 3.428.176 1.64.586 2.754l.352.937 1.289-.117q2.109-.527 3.808-1.201 1.7-.674 3.165-1.612 1.464-.937 2.812-2.138 1.348-1.201 2.813-2.842 1.406-1.641 2.519-3.721 1.113-2.08 1.846-4.306.732-2.227 1.142-4.453.41-2.227.528-4.161 1.113-.527 1.23-1.699l-.176-.762q-.175-.293-.146-.556.029-.264.146-.498.469-1.348 1.993-1.992 1.054.703 1.962 1.523.909.82 1.67 1.641.118 1.582.469 2.724.352 1.143.762 2.197.41.997.732 1.934.323.938.44 2.285-.586 1.758-.85 3.311t-.498 3.252l-.117.644q-1.055 1.817-2.08 3.721-1.026 1.904-1.67 3.311-.352.351-.615.82-.264.469-.498.937-.118.176-.323.586-.205.41-.381.586l-1.406-.527-.351 1.816-.938.235-.703.82q-1.348 2.344-2.842 3.926-1.494 1.582-3.34 2.812-1.845 1.231-4.16 2.315-2.314 1.084-5.303 2.314-1.171-.176-2.021-.205-.85-.029-1.67-.088-.82 0-1.582-.058-.762-.059-1.758-.176-.234-.528-.644-.762-.41-.234-.762-.234-1.172-.586-1.758-1.641-.586-1.055-1.23-2.344-.293-.703-.616-1.406-.322-.703-.791-1.348l1.172-.351-1.523-1.758q-.176-.176-.381-.352-.205-.175-.381-.41v-1.113q-.234-4.805-.205-8.877.029-4.072 1.084-7.178Z" class="letra8" fill="#607D8B"/><path d="M105.534 162.176q-.469-.469-.674-1.114-.205-.644-.967-1.054-.117-.879-.322-2.022-.205-1.142-.41-2.343-.205-1.202-.293-2.403t.088-2.197q.117-.527.381-.996.263-.469.527-.908.264-.44.41-.909.147-.468.029-.937.352-.059.44-.381.088-.322.556-.205.411-1.289.879-2.402.469-1.114.996-2.168.528-1.055 1.084-2.139.557-1.084 1.026-2.432-.996-.937-1.436-2.021-.439-1.084-.674-2.197-.234-1.114-.351-2.256-.117-1.143-.469-2.315.703-1.054 1.699-1.728.996-.674 2.198-1.113 1.201-.44 2.607-.704 1.406-.263 2.988-.615 2.813-.879 5.039-1.377 2.227-.498 4.336-.82 2.11-.322 4.395-.586 2.285-.264 5.273-.791.059.176.205.176h.381q.176.41.645.41 0-.176-.03-.322-.029-.147-.029-.264.117 0 .322.059.206.058.352.117.147.058.264-.03.117-.087.058-.38.703 1.23 1.817 2.021 1.113.791 2.461 1.377.058.527.029.762-.029.234-.088.439t-.059.469q0 .264.118.732-.938 1.582-2.139 2.461-1.201.879-2.549 1.348-1.348.469-2.842.703-1.494.234-3.047.498-1.552.264-3.134.733-1.582.468-3.106 1.406-.469-.176-.849-.147-.381.03-.791.147-.411.117-.909.234-.498.117-1.201 0-.469.41-1.084.586-.615.176-1.26.352.293.644.264 1.289-.029.644.147 1.113 2.461.234 5.449-.029 2.988-.264 5.859-.381.059.293-.058.41-.118.117-.118.41.528.352.997.879.468.527.966 1.025.498.499 1.026.821.527.322 1.23.263.293.586.41 1.231.118.644-.175 1.348-1.172.761-2.286 1.552-1.113.791-2.314 1.436-1.201.644-2.607 1.055-1.407.41-3.047.351h-.498q-.205 0-.498-.234-.586.293-1.553.205t-1.611.205q-.821-.293-1.905-.293t-1.904-.293q-1.055 1.523-1.992 3.193-.938 1.67-1.641 3.545 2.402.352 3.984.293 1.583-.058 2.989-.234 1.406-.176 2.9-.352t3.662-.117q1.465-.703 3.369-.967 1.905-.263 3.545-.791.586.176.996.674.411.498.791.996.381.498.791.85.411.351 1.055.234.293.293.381.703.088.41.176.762.088.352.263.557.176.205.645.146-1.113 2.285-2.49 3.516-1.377 1.23-3.106 1.904-1.728.674-3.867.996-2.139.322-4.775.791-.645.117-1.084-.029-.44-.147-.908-.147-1.641.293-3.897.586t-4.541.235q-2.285-.059-4.395-.586-2.109-.528-3.515-1.875Z" class="letra9" fill="#4A86E8"/><path d="M147.4 137.534q-2.461-.996-4.073-2.813-1.611-1.816-2.607-4.277.586-1.582 1.875-2.666 1.289-1.084 2.9-1.846 1.612-.761 3.428-1.23 1.817-.469 3.516-.82.351.117.351 0 0-.118.293.117 2.11-.645 4.864-1.26t5.859-.44q.41-.234.996-.263.586-.029 1.231-.029.644 0 1.23-.03.586-.029.996-.205.352.41 1.055.498.703.088 1.465.615.234.059 0-.205-.235-.263.058-.381.762 0 1.348.352.586.352 1.084.791.498.44.937.791.44.352.967.352.528.644 1.26 1.201.732.556 1.406 1.142.674.586 1.113 1.289.44.704.44 1.582-.059.352.234.411.293.058.41.351.059 2.168-.673 3.75-.733 1.582-1.846 2.901-1.113 1.318-2.373 2.49-1.26 1.172-2.315 2.519.704.879 1.612 1.612.908.732 1.845 1.435.938.703 1.788 1.494.849.791 1.435 1.787.176.352.762.469.176.703.498 1.436.322.732.615 1.406.293.674.352 1.201.058.528-.293.879.41.234.468.733.059.498 0 .791-1.289 1.582-1.757 2.226-.469.645-.703.938-.235.293-.469.527-.235.234-1.055.937-3.105 1.875-6.475 3.37-3.369 1.494-7.001 2.021-.293.41-.85.674-.557.264-1.26.439-.703.176-1.494.293-.791.118-1.436.235-.293-.117-.322-.381-.029-.264-.322-.381-.059.703-.615.732-.557.03-1.377-.263-.821-.293-1.699-.821-.879-.527-1.524-.996-.293.528-.732 1.114-.44.586-.909.82-.82-.117-1.201-.176-.381-.058-.732.293-.469-.234-.703-.498l-.469-.527q-.234-.264-.527-.469-.293-.205-.879-.381.117-.293-.176-.908t-.82-.733q.293-.468-.235-1.201-.527-.732-.82-1.67.059-.41.088-.849.029-.44.117-.821.088-.38.264-.673.175-.293.586-.411-.059-.761-.469-1.464.527-.411.703-1.026.176-.615.322-1.26.147-.644.381-1.259.235-.616.762-1.026-.117-.175-.235-.293-.117-.117-.117-.41.879-1.465 1.231-2.49.351-1.025.556-1.992l.44-2.08q.234-1.114.937-2.813-.058-1.054.235-1.875.293-.82.615-1.611t.498-1.67q.176-.879-.059-2.051-.996.117-1.435.703-.44.586-.557 1.582-.527.469-1.347.44-.821-.03-1.465.205Zm25.781 11.308q-2.227-1.23-4.072-1.464-1.846-.235-3.516.029t-3.193.732q-1.524.469-3.047.703-.762 1.993-1.582 4.395-.82 2.402-1.582 4.687 2.109-.292 3.867-.878 1.758-.586 3.398-1.319 1.641-.732 3.223-1.465 1.582-.732 3.281-1.377.176-.703.762-1.113.586-.41 1.172-.791.586-.381.996-.849.41-.469.293-1.29Zm-4.102-18.339q-3.632-.118-7.148.644-3.516.762-5.918 2.227 1.172.996 2.432 1.758 1.259.761 1.904 2.05 2.812-1.113 4.922-2.842 2.109-1.728 3.808-3.837Z" fill-rule="evenodd" class="letra10" fill="#00F"/><path d="M186.401 162q-.234-.234-.41-.557-.176-.322-.293-.849-.82-.996-1.289-2.285-.469-1.289-.645-2.666-.175-1.377-.058-2.784.117-1.406.41-2.636.176-.586.293-1.231.293-1.113.586-2.197t.879-1.787q-.235-.645.058-1.406.293-.762.586-1.407.117-.175.176-.322.059-.146.117-.264.703-2.05 1.377-3.955.674-1.904 1.319-3.662 1.171-3.222 2.255-6.328 1.084-3.105 1.963-6.621.469-.352.821-.469.117-.058.293-.117.175-.059.41-.059 1.23.645 2.9 1.202 1.67.556 2.842.556l.996.879q.762.879 1.318 1.846.557.967.323 2.49-.352.527-.586.645-.352 1.347-.762 2.373-.41 1.025-.82 1.963-.469 1.054-.879 2.109-.41 1.055-.703 2.578-.352.41-.44.703-.088.293-.205.586-.117.352-.293.733-.176.38-.527.673-.235 1.817-.703 2.959-.469 1.143-.938 2.256-.82 2.051-1.523 4.072-.703 2.022-.821 4.6.704-.176 1.289-.176.762 0 1.465.235 2.11-1.055 4.6-1.289 2.49-.235 4.951-.293 2.051 0 3.809-.176.586.41.761.439.176.03.586.03h.352q.176 0 .469.058.82.821 1.582 1.143.761.322 1.64.615.762.293 1.494.615.733.323 1.436.85l.527 2.988q.469.645.41.879 0 .469-.234.82l.117.762q-1.113.234-1.465.498-.351.264-.761.674-.645.059-1.231.059-1.172 0-2.402.351-1.758-.644-3.867-.644-.821 0-1.67.058-.85.059-1.67.176-.879.117-1.758.205-.879.088-1.758.088-.703.117-.996.176-.293.058-.586.175-1.992.645-4.306 1.29-2.315.644-4.659.644-3.457 0-5.566-1.758-.234-.527-.352-.703-.117-.176-.234-.41Z" class="letra11" fill="#90F"/><path d="M222.978 162.509q-.469-.469-.674-1.113-.205-.645-.967-1.055-.117-.879-.322-2.021-.205-1.143-.41-2.344-.205-1.201-.293-2.402-.088-1.202.088-2.198.117-.527.381-.996.263-.469.527-.908.264-.439.41-.908.147-.469.029-.938.352-.058.44-.381.088-.322.556-.205.411-1.289.879-2.402.469-1.113.996-2.168.528-1.055 1.084-2.139.557-1.084 1.026-2.431-.996-.938-1.436-2.022-.439-1.084-.674-2.197-.234-1.113-.351-2.256-.117-1.142-.469-2.314.703-1.055 1.699-1.729.996-.674 2.198-1.113 1.201-.44 2.607-.703 1.406-.264 2.988-.615 2.813-.879 5.039-1.377 2.227-.498 4.336-.821 2.11-.322 4.395-.586 2.285-.263 5.273-.791.059.176.205.176h.381q.176.41.645.41 0-.176-.029-.322-.03-.147-.03-.264.117 0 .322.059.206.058.352.117.147.059.264-.029.117-.088.058-.381.703 1.23 1.817 2.021 1.113.791 2.461 1.377.058.528.029.762-.029.234-.088.44-.059.205-.059.468 0 .264.118.733-.938 1.582-2.139 2.461-1.201.879-2.549 1.347-1.348.469-2.842.703-1.494.235-3.047.498-1.552.264-3.134.733-1.582.469-3.106 1.406-.469-.176-.849-.146-.381.029-.791.146-.411.117-.909.235-.498.117-1.201 0-.469.41-1.084.585-.615.176-1.26.352.293.645.264 1.289-.029.645.147 1.113 2.461.235 5.449-.029t5.859-.381q.059.293-.058.41-.118.118-.118.411.528.351.997.878.468.528.966 1.026.498.498 1.026.82.527.322 1.23.264.293.586.41 1.23.118.645-.175 1.348-1.172.762-2.286 1.553-1.113.791-2.314 1.435-1.201.645-2.607 1.055-1.407.41-3.047.351h-.498q-.205 0-.498-.234-.586.293-1.553.205t-1.611.205q-.821-.293-1.905-.293t-1.904-.293q-1.055 1.524-1.992 3.194-.938 1.67-1.641 3.545 2.402.351 3.984.293 1.583-.059 2.989-.235t2.9-.351q1.494-.176 3.662-.118 1.465-.703 3.369-.966 1.905-.264 3.545-.791.586.175.996.673.411.498.791.997.381.498.791.849.411.352 1.055.235.293.292.381.703.088.41.176.761.088.352.263.557.176.205.645.146-1.113 2.286-2.49 3.516-1.377 1.231-3.106 1.904-1.728.674-3.867.997-2.139.322-4.775.791-.645.117-1.084-.03-.44-.146-.908-.146-1.641.293-3.897.586t-4.541.234q-2.285-.059-4.395-.586-2.109-.527-3.515-1.875Z" class="letra12" fill="#F0F"/><path d="M258.076 138.076q.175-.879.234-1.436.058-.557-.41-1.201.234-.938.381-1.465.146-.527.029-1.465.527-1.523 1.611-2.578t2.373-1.787q1.289-.733 2.696-1.231 1.406-.498 2.636-.849 0-.235-.234-.235t-.117-.293q3.164-.585 6.357-1.699 3.194-1.113 6.533-1.992 3.34-.879 6.856-1.084 3.515-.205 7.383.908.234.703.644 1.348.41.644.85 1.26.439.615.791 1.201.351.586.41 1.23.703.645 1.143 1.377.439.733.146 1.963-.645.469-1.348.938-.703.468-1.464.879-2.637-.645-5.274-.469-2.637.176-4.746.41-.645-.703-1.523-.674-.879.029-1.846.293-.967.264-1.904.527-.938.264-1.758.147-.645.586-1.699.791-1.055.205-2.227.322-.059.293.117.41.176.118.059.469.41.527 1.113.733.703.205 1.436.38.732.176 1.318.498.586.323.762 1.026 1.054.058 1.816.557.762.498 1.289 1.201.527.703.762 1.494.234.791.176 1.435.234.586.498.469.263-.117.615.293.234.879 1.084 1.846.849.967 1.318 2.08.117 1.758.205 3.164.088 1.406-.498 2.754-.996 2.578-2.871 4.629-1.875 2.051-4.248 3.603-2.373 1.553-5.01 2.696-2.636 1.142-5.214 1.904-.235-.059-.557 0-.322.058-.147-.352-.527.469-1.201.586-.674.117-1.465.088-.791-.029-1.582-.088-.791-.058-1.552.059-.469-.469-.85-.938-.381-.468-.615-1.113-.293-.059-.264-.381.029-.322-.264-.322 0-.234.059-.352l.117-.234q.235-.176.205-.264-.029-.088-.175-.175-.147-.088-.293-.206-.147-.117-.088-.293.293-.527.205-1.259-.088-.733-.147-1.494-.058-.762.117-1.436.176-.674.997-1.143 2.402.235 4.541-.234 2.138-.469 4.043-1.289 1.904-.82 3.632-1.787 1.729-.967 3.369-1.787.176-.586.557-.996.381-.41.791-.791.41-.381.762-.821.351-.439.527-1.084.059-.234 0-.351-.058-.117-.176-.205-.117-.088-.234-.205-.117-.118-.117-.352-.176-.058-.322-.117-.147-.059-.264-.059-1.524-.761-3.223-1.289-1.699-.527-2.871-1.172-.703.469-1.406.235-.703-.235-1.699-.469-2.461-.117-4.659-.469-2.197-.351-4.248-1.23-.117-.352-.293-.615-.175-.264-.82-.147-.41-.586-.849-1.084-.44-.498-.791-1.142Z" class="letra13" fill="#DC97FF"/><path d="M27.521 45.827v-.645q-.058-.468-.205-.849-.146-.381-.322-.85-.293-.703-.527-1.523-.235-.821-.235-1.934.118-.586.293-.85.176-.263.352-.439l.234-1.055h.879q.469.059.967.059h.967q2.226 0 4.57-.176 2.344-.176 4.805-.41 2.695-.352 5.801-.527.293-.645.38-.821l.206-.41.644-.351q1.348-.059 1.875.322.527.381.82.732 1.524-.117 3.106-.322 1.582-.205 3.281-.439 2.344-.293 4.746-.586 2.403-.293 4.688-.293.996 0 1.875.058.879.059 1.699.176l.703.527q.234.411.586.762.352.352.82.703.879.703 1.729 1.758.849 1.055.615 3.105l-.293.586q-.234.235-.586.469l-.586.762h-.644q-.586 0-.879.088-.293.088-.703.263-.235.118-.528.206-.293.087-.644.205-.645-.059-.996-.059h-.821q-1.757 0-3.808.234-2.051.235-3.985.528-1.406.176-2.695.322l-2.344.264q-.586 1.523-1.054 2.695-.469 1.172-.996 2.344-.528 1.172-.997 2.373-.468 1.201-.878 2.666-.704 1.054-1.172 2.021-.469.967-.762 2.198-.879.996-1.26 2.168-.381 1.171-.674 1.992l-.234.879q-.41.41-.498.644-.088.235-.322.527-.176.762-.469 1.465-.117.293-.234.616-.118.322-.059.498-.117.644-.352.996 0 .351-.058.703l-.117.703q-.118.41-.176.732-.059.323.058.616l.352.468q.176.235.293.586.117.117.293.176.176.059.293.176.469.41.879.469l.586.703q.351 2.109-.645 3.281-1.054 1.348-3.515 1.348l-.821-.059q-.41-.41-.468-.527-.528-.235-.879-.381-.352-.147-.645-.557-.117-.117-.293-.146-.176-.03-.293-.147-.586-.176-.937-.41l-.645-.351q.059-.586.059-.821-.469-.644-.733-1.406-.263-.762-.439-1.582-.176-.645-.322-1.172-.147-.527-.44-.937-.117-4.102.762-6.885.879-2.783 1.933-5.42.586-1.406 1.114-2.871.527-1.465.937-2.989l.645-.644q.41-.352.527-.41 0-.762.293-1.494.293-.733.645-1.494.234-.469.439-.938t.264-.82q-.41 0-.733.029-.322.029-.674.088-.761.176-1.464.176-.528 0-.762-.059-.469.234-.879.264-.41.029-.82.029h-1.407q-.703 0-1.113.176H31.506q-.469 0-1.055-.088t-1.23-.44l-.41-.468q-.352-.645-.645-.703l-.645-.176Z" class="letra1" fill="#980000"/><path d="M68.34 79.599q-.82-.527-1.318-1.348-.498-.82-.82-1.758-.322-.937-.528-1.962-.205-1.026-.439-1.963 0-.821.352-1.201.351-.381.761-.733 1.407-.058 2.52-.234 1.113-.176 2.168-.352 1.054-.176 2.109-.322 1.055-.147 2.285-.147.879-1.816 1.641-3.486.762-1.67 1.465-3.193.351-1.465.908-2.725t1.084-2.402q.527-1.143.937-2.285.411-1.143.528-2.432.703-2.051 1.26-3.779.556-1.729.849-4.131-2.226.351-3.574.674-1.348.322-1.934.615-1.171-.059-1.845-.469-.674-.41-1.084-.996-.41-.586-.703-1.348-.293-.761-.704-1.582.235-.527.118-1.552-.118-1.026-.703-1.495.468-.117.703-.791.234-.673.058-1.025.996-.293 2.11-.381 1.113-.088 2.197-.176 1.084-.087 2.08-.234.996-.146 1.699-.615 3.047-.117 6.358-.235 3.31-.117 6.123-.293 1.054.352 2.431.352t2.754.176q1.377.176 2.461.762 1.084.585 1.494 2.05.879.118 1.319.469.439.352.556.85.117.498.088 1.113-.029.615-.029 1.201-.938.703-2.373 1.143-1.436.439-3.135.703-1.699.264-3.545.351-1.846.088-3.603.147-.293 1.933-1.026 4.541-.732 2.607-1.494 5.098-.762 2.49-1.318 4.453-.557 1.963-.498 2.549-.586 1.347-.967 2.285-.381.937-.703 1.757-.323.821-.645 1.612-.322.791-.791 1.787h3.985q.117.644.527.879.41.234.879.41.469.176.849.439.381.264.381.85 1.114.293 1.407.879.293.586.146 1.26-.146.674-.586 1.377-.439.703-.85 1.23-.527-.117-.996.264-.468.381-.879.849-1.699-.234-3.339-.058-1.641.176-3.047.293-.293.058-.235.322.059.264-.117.381-1.816-.586-3.72-.469-1.905.117-3.868.557-1.963.439-4.013.937-2.051.498-4.161.557Z" class="letra2" fill="red"/><path d="M107.23 76.57q-.469-.468-.674-1.113-.205-.644-.967-1.055-.117-.879-.322-2.021-.205-1.143-.41-2.344-.205-1.201-.293-2.402t.088-2.197q.117-.528.381-.997.263-.468.527-.908.264-.439.41-.908.147-.469.029-.938.352-.058.44-.38.088-.323.556-.205.411-1.29.879-2.403.469-1.113.996-2.168.528-1.054 1.084-2.138.557-1.084 1.026-2.432-.996-.938-1.436-2.022-.439-1.084-.674-2.197-.234-1.113-.351-2.256-.117-1.142-.469-2.314.703-1.055 1.699-1.729.996-.673 2.198-1.113 1.201-.439 2.607-.703 1.406-.264 2.988-.615 2.813-.879 5.039-1.377 2.227-.498 4.336-.821 2.11-.322 4.395-.585 2.285-.264 5.273-.792.059.176.205.176h.381q.176.41.645.41 0-.175-.03-.322-.029-.146-.029-.264.117 0 .322.059.206.059.352.117.146.059.264-.029.117-.088.058-.381.703 1.231 1.817 2.022 1.113.791 2.461 1.377.058.527.029.761-.029.235-.088.44-.059.205-.059.468 0 .264.118.733-.938 1.582-2.139 2.461-1.201.879-2.549 1.347-1.348.469-2.842.704-1.494.234-3.047.498-1.552.263-3.134.732-1.582.469-3.106 1.406-.469-.175-.849-.146-.381.029-.791.146-.411.118-.909.235-.498.117-1.201 0-.469.41-1.084.586-.615.175-1.26.351.293.645.264 1.289-.029.645.147 1.114 2.461.234 5.449-.03 2.988-.263 5.859-.381.059.293-.058.411-.118.117-.118.41.528.351.997.879.468.527.966 1.025.498.498 1.026.82.527.323 1.23.264.293.586.41 1.23.118.645-.175 1.348-1.172.762-2.286 1.553-1.113.791-2.314 1.435-1.201.645-2.607 1.055-1.407.41-3.047.352h-.498q-.205 0-.498-.235-.586.293-1.553.205t-1.612.205q-.82-.293-1.904-.293t-1.904-.293q-1.055 1.524-1.992 3.194-.938 1.67-1.641 3.545 2.402.351 3.984.293 1.582-.059 2.989-.235 1.406-.175 2.9-.351t3.662-.117q1.465-.703 3.369-.967 1.905-.264 3.545-.791.586.176.996.674.411.498.791.996.381.498.791.849.411.352 1.055.235.293.293.381.703.088.41.176.762.088.351.263.556.176.205.645.147-1.113 2.285-2.49 3.515-1.377 1.231-3.106 1.905-1.728.673-3.867.996-2.139.322-4.775.791-.645.117-1.084-.03-.44-.146-.909-.146-1.64.293-3.896.586-2.256.293-4.541.234-2.285-.058-4.395-.586-2.109-.527-3.515-1.875Z" class="letra3" fill="#F90"/><path d="M151.171 73.388q-.586.469-.703 1.201-.117.733-.293 1.436t-.615 1.201q-.44.498-1.553.439-.234.293-.088.352.147.059.264.527-.82-.117-1.172.117-.351.235-.879.352-1.347-.41-2.256-1.494-.908-1.084-1.582-2.373-.674-1.289-1.172-2.637-.498-1.348-1.025-2.344 0-.234.205-.205.205.03.381.03-.293-.586-.44-1.319-.146-.732-.556-1.201 1.699-3.633 3.633-7.588 1.933-3.955 3.896-8.027 1.963-4.072 3.926-8.203 1.963-4.131 3.779-8.116 1.641.586 3.194 1.377 1.552.791 2.841 1.846 1.289 1.055 2.198 2.432.908 1.377 1.201 3.135-.117.351-.293.234-.176-.117-.293.117.293.352.322.498.029.147-.029.293-.059.147-.059.381t.293.644q-.293-.058-.41.088-.117.147-.41.03.293.82.176 1.289-.117.468-.352.849-.234.381-.381.821-.146.439.088 1.201-.234 0-.322.088t-.147.205q-.058.117-.146.205-.088.088-.322.029.175 1.524.117 3.076-.059 1.553-.117 3.164-.059 1.612 0 3.311.058 1.699.468 3.516 2.52-1.465 4.073-3.809 1.552-2.344 2.461-5.215.908-2.871 1.406-6.152.498-3.281 1.025-6.68.645-.644 1.026-1.582.381-.937.644-1.934.264-.996.528-2.021.263-1.025.732-1.846 1.055.117 1.787.616.732.498 1.377 1.113t1.348 1.142q.703.528 1.757.704.821 1.171 1.524 2.255.703 1.084.937 2.432-.351.586-.527 1.289-.176.703-.381 1.406-.205.703-.556 1.289-.352.586-.997.996-.175 1.758-.527 3.282-.351 1.523-.644 2.988-.293 1.465-.528 3.047-.234 1.582-.176 3.457-.527 1.699-1.171 3.486-.645 1.787-.938 3.311-1.113.879-1.758 2.168-.644 1.289-1.347 2.578-.293.234-.352.088-.059-.147-.527-.205.058.527-.205.674-.264.146.029.849-.996.469-1.758 1.231-.762.761-1.67 1.406-.908.644-2.109.849-1.201.206-3.135-.498-2.871-2.109-5.156-4.863-2.285-2.754-3.633-6.504-.586.176-.879.762-.293.586-.527 1.23-.235.645-.469 1.172-.234.528-.703.528-.117.527-.44.966-.322.44-.615.879-.293.44-.439.967-.147.527.146 1.172Z" class="letra4" fill="#FF0"/><path d="M187.382 79.54q-1.699-.41-2.607-1.377-.908-.966-1.348-2.285-.439-1.318-.586-2.9-.146-1.582-.322-3.281.234-.762.615-1.289.381-.528.322-1.465.645-1.875 1.172-3.633.528-1.758.703-3.633.352-.527.704-.703.468-3.34.117-6.856-.352-3.515-1.172-6.503.058-.645.176-.967.117-.322 0-.557-.118-.527.351-.527h.938q0-1.055-.381-2.08-.381-1.026-.733-2.373.469-1.055.645-2.051.176-.996.644-1.817 1.875.586 3.692 1.348 1.816.762 3.574 1.494 1.758.733 3.457 1.407 1.699.673 3.34 1.084 2.519 1.816 5.185 3.603 2.667 1.787 4.864 3.926 2.197 2.138 3.662 4.892 1.465 2.754 1.699 6.504-.117.352-.176.586l-.117.469q-.058.234-.058.527v.821q-2.11 3.691-5.332 6.211-3.223 2.519-7.032 4.453-3.808 1.933-7.939 3.545-4.131 1.611-8.057 3.427Zm5.742-33.222q-.527 0-.761.234.703 2.637 1.054 4.981.352 2.343.381 4.687.029 2.344-.263 4.805-.293 2.461-.821 5.332.762-.059 1.348-.293.586-.235 1.201-.528.615-.293 1.289-.527.674-.234 1.553-.293.234-.469.615-.732.381-.264.674-.557 1.465-.586 2.93-1.23 1.464-.645 2.695-1.465 1.23-.821 2.226-1.875.997-1.055 1.641-2.52-.469-.879-1.143-1.494-.673-.615-1.406-1.23-.732-.616-1.406-1.289-.674-.674-1.084-1.553-.937-.117-1.641-.498-.703-.381-1.347-.762-.645-.381-1.377-.732-.733-.352-1.729-.411-1.523-.82-2.754-1.142-1.23-.322-1.875-.908Z" fill-rule="evenodd" class="letra5" fill="#0F0"/><path d="m216.327 74.208-.878-.879.761-.586.059-1.23q1.465-3.574 3.017-6.855 1.553-3.282 3.252-6.739.528-1.113 1.084-2.226.557-1.114 1.084-2.285-.058-.235-.058-.498 0-.264.117-.616.82-1.172 1.318-2.109.498-.938.967-1.934.527-1.172 1.143-2.343.615-1.172 1.552-2.286l.411-.586.644.059q.235-.117.498-.205.264-.088.674-.088l1.055.176q1.933-.879 3.427-2.549 1.495-1.67 3.018-4.014l.703-.996.938.586q.293.176.937.352.645.176 1.348.41 1.23.293 2.402.674 1.172.381 1.817 1.025l.293.527q.117.645.205 1.172.087.528.205 1.055.234 1.231.41 2.432.176 1.201.234 2.666.293 1.172.557 2.373.264 1.201.498 2.373.293 1.699.644 3.252.352 1.552.938 2.959.586 0 .703.058.703-.293 1.641-.351l.761-.059.235.703q.117.176.293.352t.41.351q.937.059 1.377.381.439.323.732.616.117.117.293.263.176.147.293.205l1.055.41-.586 1.114q-.645 1.23-1.963 2.402-1.318 1.172-2.959 1.934.117.41.147.761.029.352.146.821.234 1.172.381 2.431.146 1.26-.029 2.608-.586 1.523-1.377 2.724-.791 1.202-1.875 2.168-1.084.967-2.432 1.582-1.348.616-2.812.674-.821-.176-1.202-.41-.381-.234-.673-.469-.469-.351-.762-.468l-.762-.352.234-.879q.176-.469-.029-.82-.205-.352-.849-.938-.235-.176-.411-.381-.175-.205-.41-.439l-1.172-1.348 1.934-.527q1.758-.469 2.344-1.201.586-.733.468-2.608-1.464-.293-2.402-.088-.937.206-1.875.44-1.348.351-2.637.615t-2.812.264q-.996 0-2.109-.176l-.645-.059-.176-.644q0-.117-.146-.264l-.264-.263q-.293-.352-.703-.938t-.176-1.465q-.41-.644-.469-1.347-.234.468-.38.908-.147.439-.264.849l-.235.762-.761.117q-.117.117-.205.352-.088.234-.03.351l.235.645-.586.527q-.117.176-.293.293-.176.117-.293.235-.117.644-.322 1.23-.205.586-.44 1.172-.293.937-.556 1.816-.264.879-.264 1.758l-.235.762q-.292.469-.732.703-.439.234-.85.41-.585.235-.82.469l-.176.762-.879.117q-.761.176-1.084.234-.322.059-.732.059l-.762-.059q-.703-.703-1.142-1.084-.44-.381-1.026-.674l-.351-.468q-.235-.469-.293-.85-.059-.381-.176-.791-.117-.762-.352-1.055Zm17.872-16.172-.059.059q-.82 1.172-1.582 2.461.41-.059.791-.059.381 0 .791-.058 2.051-.117 3.809-.293 1.757-.176 3.808-.586-.469-2.168-1.025-4.424-.557-2.256-1.201-4.541l-.293.586q-1.465 1.582-2.813 3.398-1.348 1.817-2.226 3.457Z" fill-rule="evenodd" class="letra6" fill="#0FF"/></g></svg>